<svg width="19" height="19" viewBox="0 0 19 19" fill="none" xmlns="http://www.w3.org/2000/svg">
<path d="M18.5387 16.0622L14.9198 12.5574C14.7565 12.3992 14.5351 12.3113 14.3028 12.3113H13.7111C14.7129 11.0705 15.3082 9.50967 15.3082 7.81179C15.3082 3.77273 11.9289 0.5 7.75836 0.5C3.58779 0.5 0.208496 3.77273 0.208496 7.81179C0.208496 11.8508 3.58779 15.1236 7.75836 15.1236C9.51153 15.1236 11.1231 14.5471 12.4044 13.5768V14.1498C12.4044 14.3748 12.4952 14.5892 12.6585 14.7474L16.2774 18.2522C16.6186 18.5826 17.1703 18.5826 17.5079 18.2522L18.5351 17.2573C18.8763 16.9269 18.8763 16.3926 18.5387 16.0622ZM7.75836 12.3113C5.19213 12.3113 3.11229 10.3006 3.11229 7.81179C3.11229 5.32648 5.1885 3.31223 7.75836 3.31223C10.3246 3.31223 12.4044 5.32297 12.4044 7.81179C12.4044 10.2971 10.3282 12.3113 7.75836 12.3113Z" fill="white"/>
</svg>
