<svg width="20" height="21" viewBox="0 0 20 21" fill="none" xmlns="http://www.w3.org/2000/svg">
<path d="M19 8.04636V17.5523C18.462 17.5829 17.7336 17.6484 16.8618 17.7855C15.0577 18.0692 12.6293 18.6609 10 19.891C7.37073 18.6609 4.94228 18.0692 3.13821 17.7855C2.26635 17.6484 1.53797 17.5829 1 17.5523V8.04636C1.54631 8.08614 2.28391 8.15987 3.13736 8.29633C5.00854 8.59552 7.38632 9.1885 9.52244 10.3496L10 10.6092L10.4776 10.3496C12.6137 9.1885 14.9915 8.59552 16.8626 8.29633C17.7161 8.15987 18.4537 8.08614 19 8.04636Z" stroke="white" stroke-width="2"/>
<path d="M12.5 4C12.5 5.38071 11.3807 6.5 10 6.5C8.61929 6.5 7.5 5.38071 7.5 4C7.5 2.61929 8.61929 1.5 10 1.5C11.3807 1.5 12.5 2.61929 12.5 4Z" stroke="white" stroke-width="2"/>
</svg>
