<svg width="25" height="22" viewBox="0 0 25 22" fill="none" xmlns="http://www.w3.org/2000/svg">
<path d="M20.8473 12.2781C21.0638 12.3285 21.2876 12.3418 21.509 12.3172C21.7654 12.2888 22.0136 12.2102 22.2395 12.0858C22.4654 11.9615 22.6646 11.7938 22.8257 11.5925C22.9868 11.3911 23.1067 11.16 23.1786 10.9123C23.2504 10.6646 23.2727 10.4052 23.2442 10.1489C23.2158 9.89263 23.1372 9.64444 23.0128 9.41852C22.8885 9.1926 22.7208 8.99339 22.5195 8.83227L22.5194 8.83223L20.1365 6.92548L14.0451 1.70516C14.045 1.70508 14.0449 1.705 14.0449 1.70493C13.5143 1.25005 12.8386 1 12.1397 1C11.4408 1 10.765 1.25007 10.2345 1.70499C10.2344 1.70504 10.2344 1.7051 10.2343 1.70516L4.1429 6.92649L1.76983 8.82533C1.56585 8.98151 1.39445 9.17623 1.26541 9.3985C1.13336 9.62596 1.04836 9.87762 1.01544 10.1386C0.982522 10.3995 1.00236 10.6644 1.07378 10.9175C1.14521 11.1706 1.26675 11.4068 1.43121 11.6121C1.59567 11.8173 1.79969 11.9874 2.03115 12.1123C2.26261 12.2372 2.51681 12.3143 2.77865 12.339C2.99792 12.3598 3.21881 12.3434 3.4321 12.291V18.0731C3.4321 18.8494 3.74047 19.5938 4.28937 20.1427C4.83827 20.6916 5.58274 21 6.359 21H10.2128H11.2128V20V15.1827C11.2128 14.9369 11.3105 14.7012 11.4843 14.5273C11.6581 14.3535 11.8939 14.2558 12.1397 14.2558C12.3855 14.2558 12.6213 14.3535 12.7951 14.5273C12.969 14.7012 13.0666 14.9369 13.0666 15.1827V20V21H14.0666H17.9204C18.6967 21 19.4411 20.6916 19.99 20.1427C20.5389 19.5938 20.8473 18.8494 20.8473 18.0731V12.2781Z" stroke="white" stroke-width="2"/>
</svg>
