<svg width="21" height="21" viewBox="0 0 21 21" fill="none" xmlns="http://www.w3.org/2000/svg">
<path d="M10.5103 1.5C10.1014 1.5 9.706 1.66467 9.39561 1.96423L3.97113 7.19673L1.84191 9.114C1.75022 9.19152 1.67331 9.28897 1.61573 9.40058C1.55815 9.51219 1.52109 9.63568 1.50673 9.76372C1.49238 9.89176 1.50103 10.0217 1.53217 10.1459C1.56332 10.2701 1.61631 10.386 1.68802 10.4868C1.75973 10.5875 1.84869 10.6709 1.94962 10.7322C2.05055 10.7935 2.16139 10.8313 2.27556 10.8435C2.38973 10.8556 2.5049 10.8418 2.61425 10.8029C2.72359 10.764 2.82487 10.7008 2.91209 10.617L3.66121 9.94257V17.5731C3.66121 18.0841 3.84161 18.5743 4.16272 18.9356C4.48383 19.297 4.91936 19.5 5.37348 19.5H8.79803H12.2226H15.6471C16.1013 19.5 16.5368 19.297 16.8579 18.9356C17.179 18.5743 17.3594 18.0841 17.3594 17.5731V9.94353L18.1085 10.6179C18.1963 10.697 18.2971 10.7559 18.4051 10.7911C18.5132 10.8263 18.6263 10.8373 18.7381 10.8233C18.8498 10.8094 18.9581 10.7708 19.0566 10.7098C19.1551 10.6487 19.242 10.5665 19.3123 10.4676C19.3825 10.3688 19.4348 10.2554 19.4661 10.1339C19.4974 10.0123 19.5072 9.885 19.4948 9.75922C19.4824 9.63343 19.4481 9.51162 19.3938 9.40075C19.3396 9.28988 19.2665 9.19211 19.1787 9.11304L17.0495 7.19577L11.625 1.96423C11.3146 1.66467 10.9192 1.5 10.5103 1.5Z" stroke="white" stroke-width="2"/>
</svg>
