<svg width="80" height="80" viewBox="0 0 80 80" fill="none" xmlns="http://www.w3.org/2000/svg">
<circle cx="40" cy="40" r="39" stroke="#E1A21E" stroke-width="2"/>
<path d="M15.8751 39.052C15.5545 41.3953 15.3078 43.5167 15.1351 45.416C14.9625 47.3153 14.8761 48.931 14.8761 50.263C14.8761 51.595 14.9255 52.9023 15.0241 54.185C13.2975 54.185 12.1258 53.9877 11.5091 53.593C10.9171 53.1737 10.6211 52.594 10.6211 51.854C10.6211 51.632 11.0281 48.3267 11.8421 41.938C12.6561 35.5247 13.0755 31.0353 13.1001 28.47L12.7671 27.989C12.1505 27.0763 11.3365 26.3117 10.3251 25.695C10.0785 25.547 9.93047 25.4483 9.88113 25.399C11.0651 24.6837 12.1998 24.326 13.2851 24.326C15.4558 24.326 17.0468 25.0413 18.0581 26.472C19.0695 27.878 20.9565 31.3683 23.7191 36.943C24.0151 37.5597 24.4591 38.497 25.0511 39.755C25.6678 40.9883 26.1611 41.9873 26.5311 42.752C27.3945 44.602 28.3195 46.341 29.3061 47.969C29.3801 47.007 29.7131 44.0593 30.3051 39.126C30.9218 34.168 31.2301 30.246 31.2301 27.36C31.2301 26.5953 31.1808 25.5963 31.0821 24.363C32.8088 24.363 33.9681 24.5603 34.5601 24.955C35.1521 25.3497 35.4481 25.9047 35.4481 26.62C35.4481 26.8913 35.0411 30.3323 34.2271 36.943C33.4131 43.5537 33.0061 48.1293 33.0061 50.67C33.0061 51.5827 33.0308 52.2487 33.0801 52.668C33.2775 52.8407 33.5981 53.0503 34.0421 53.297C32.5128 54.2837 31.0945 54.777 29.7871 54.777C28.4798 54.777 27.3451 54.0493 26.3831 52.594C25.9391 51.9527 24.4468 49.2147 21.9061 44.38C19.3901 39.5207 17.6018 36.1413 16.5411 34.242C16.4425 35.0807 16.2205 36.684 15.8751 39.052ZM55.9198 47.044C55.0318 47.3893 54.3412 47.562 53.8478 47.562C52.3678 47.562 51.5415 47.3523 51.3688 46.933C48.9022 40.5937 47.2742 36.5113 46.4848 34.686C46.4108 35.352 46.2135 36.8937 45.8928 39.311C45.2268 44.047 44.8938 47.9813 44.8938 51.114C44.8938 51.8787 44.9432 52.9023 45.0418 54.185C43.3152 54.185 42.1435 53.9877 41.5268 53.593C40.9348 53.1737 40.6388 52.594 40.6388 51.854C40.6388 51.6073 41.0458 48.2527 41.8598 41.79C42.6985 35.3273 43.1178 30.8257 43.1178 28.285V28.1C42.4025 26.9407 41.6502 25.991 40.8608 25.251C41.7735 24.6097 42.8712 24.289 44.1538 24.289C45.7818 24.289 47.0398 25.0537 47.9278 26.583C48.8158 28.0877 50.5548 32.244 53.1448 39.052L54.8468 43.418C54.9948 43.1713 55.2168 42.8383 55.5128 42.419C61.5315 33.5143 64.6272 27.471 64.7998 24.289C64.7998 24.3137 65.0958 24.3507 65.6878 24.4C66.2798 24.4247 66.9088 24.548 67.5748 24.77C68.2655 24.9673 68.7588 25.288 69.0548 25.732C69.3755 26.1513 69.5728 26.5707 69.6468 26.99C69.7208 27.3847 69.7578 28.0753 69.7578 29.062C69.7578 30.024 69.3508 33.2923 68.5368 38.867C67.7228 44.4417 67.3158 48.3513 67.3158 50.596C67.3158 52.816 67.4885 54.333 67.8338 55.147C65.7372 54.6043 64.3065 53.889 63.5418 53.001C62.7772 52.0883 62.3948 50.8303 62.3948 49.227C62.3948 48.2897 62.6415 45.9833 63.1348 42.308C63.6528 38.6327 64.0105 35.6973 64.2078 33.502C63.2212 35.204 61.8152 37.535 59.9898 40.495C58.1892 43.455 57.1038 45.2187 56.7338 45.786C56.3638 46.3287 56.0925 46.748 55.9198 47.044Z" fill="#E1A21E"/>
</svg>
