<svg width="24" height="24" viewBox="0 0 24 24" fill="none" xmlns="http://www.w3.org/2000/svg">
<path d="M23.9999 12C23.9999 13.0938 23.8554 14.1562 23.5664 15.1875C23.2773 16.2188 22.8632 17.1875 22.3242 18.0938C21.7851 19 21.1328 19.8281 20.3671 20.5781C19.6015 21.3281 18.7382 21.9688 17.7773 22.5H20.9999V24H14.9999V18H16.4999V21.4453C17.414 21.0156 18.2382 20.4727 18.9726 19.8164C19.707 19.1602 20.3359 18.418 20.8593 17.5898C21.3828 16.7617 21.7851 15.8789 22.0664 14.9414C22.3476 14.0039 22.4921 13.0234 22.4999 12C22.4999 11.0391 22.3749 10.1133 22.1249 9.22266C21.8749 8.33203 21.5234 7.49609 21.0703 6.71484C20.6171 5.93359 20.0664 5.22266 19.4179 4.58203C18.7695 3.94141 18.0624 3.39453 17.2968 2.94141C16.5312 2.48828 15.6953 2.13281 14.789 1.875C13.8828 1.61719 12.9531 1.49219 11.9999 1.5C11.039 1.5 10.1132 1.625 9.2226 1.875C8.33198 2.125 7.49604 2.47656 6.71479 2.92969C5.93354 3.38281 5.2226 3.93359 4.58198 4.58203C3.94135 5.23047 3.39448 5.9375 2.94135 6.70312C2.48823 7.46875 2.13276 8.30469 1.87495 9.21094C1.61713 10.1172 1.49213 11.0469 1.49995 12C1.49995 13.1719 1.68745 14.3008 2.06245 15.3867C2.43745 16.4727 2.96479 17.4609 3.64448 18.3516C4.32416 19.2422 5.13666 20.0117 6.08198 20.6602C7.02729 21.3086 8.06635 21.793 9.19916 22.1133L8.80073 23.5547C7.94135 23.3125 7.12885 22.9844 6.36323 22.5703C5.5976 22.1563 4.88666 21.6719 4.23041 21.1172C3.57416 20.5625 2.98432 19.9414 2.46088 19.2539C1.93745 18.5664 1.49604 17.8359 1.13666 17.0625C0.77729 16.2891 0.49604 15.4766 0.292914 14.625C0.0897895 13.7734 -0.00786675 12.8984 -5.42534e-05 12C-5.42534e-05 10.8984 0.140571 9.83594 0.421821 8.8125C0.703071 7.78906 1.10932 6.83594 1.64057 5.95312C2.17182 5.07031 2.79682 4.26172 3.51557 3.52734C4.23432 2.79297 5.04291 2.16406 5.94135 1.64062C6.83979 1.11719 7.79682 0.714844 8.81245 0.433594C9.82807 0.152344 10.8906 0.0078125 11.9999 0C13.1015 0 14.164 0.140625 15.1874 0.421875C16.2109 0.703125 17.164 1.10938 18.0468 1.64062C18.9296 2.17187 19.7382 2.79688 20.4726 3.51562C21.207 4.23437 21.8359 5.04297 22.3593 5.94141C22.8828 6.83984 23.2851 7.79688 23.5664 8.8125C23.8476 9.82812 23.9921 10.8906 23.9999 12ZM17.9999 12L8.99995 17.1914V6.80859L17.9999 12ZM10.4999 14.6016L14.9999 12L10.4999 9.39844V14.6016Z" fill="white"/>
</svg>
