<svg width="21" height="21" viewBox="0 0 21 21" fill="none" xmlns="http://www.w3.org/2000/svg">
<path d="M19.4912 18.3234C19.4912 18.4639 19.4122 18.5927 19.2542 18.7098C19.0961 18.8268 18.8532 18.9234 18.5254 18.9995C18.1976 19.0756 17.861 19.1459 17.5156 19.2102C17.1703 19.2746 16.7283 19.3244 16.1898 19.3595C15.6512 19.3946 15.1829 19.421 14.7849 19.4385C14.3868 19.4561 13.8746 19.4707 13.2483 19.4824C12.622 19.4941 12.1478 19.5 11.8259 19.5H9.17415L7.75172 19.4824L6.21513 19.4385L4.81025 19.3595L3.4844 19.2102L2.47464 18.9995L1.74586 18.7098L1.50879 18.3234C1.5322 17.2932 2.17611 16.3829 3.4405 15.5927C4.70489 14.8024 6.30879 14.2785 8.2522 14.021V13.4415C7.64342 13.1722 7.11659 12.7917 6.67172 12.3C6.22684 11.8083 5.87562 11.2317 5.61806 10.5702C5.3605 9.90878 5.17318 9.20049 5.05611 8.44537C4.93903 7.69024 4.8805 6.87366 4.8805 5.99561C4.8805 5.24634 5.02684 4.57902 5.31952 3.99366C5.6122 3.40829 6.01611 2.93707 6.53123 2.58C7.04635 2.22293 7.63757 1.95366 8.30489 1.7722C8.9722 1.59073 9.70391 1.5 10.5 1.5C11.2961 1.5 12.0278 1.59073 12.6951 1.7722C13.3624 1.95366 13.9537 2.22293 14.4688 2.58C14.9839 2.93707 15.3878 3.40829 15.6805 3.99366C15.9732 4.57902 16.1195 5.24634 16.1195 5.99561C16.1195 10.0932 14.9956 12.5868 12.7478 13.4766V14.021C14.6912 14.2785 16.2951 14.8024 17.5595 15.5927C18.8239 16.3829 19.4678 17.2932 19.4912 18.3234Z" stroke="white" stroke-width="2"/>
</svg>
