<svg width="18" height="21" viewBox="0 0 18 21" fill="none" xmlns="http://www.w3.org/2000/svg">
<path d="M15 4.99994H11.41L13.71 2.70994C13.8032 2.6167 13.8772 2.50601 13.9277 2.38419C13.9781 2.26237 14.0041 2.1318 14.0041 1.99994C14.0041 1.86808 13.9781 1.73751 13.9277 1.61569C13.8772 1.49387 13.8032 1.38318 13.71 1.28994C13.6168 1.1967 13.5061 1.12274 13.3842 1.07228C13.2624 1.02182 13.1319 0.99585 13 0.99585C12.7337 0.99585 12.4783 1.10164 12.29 1.28994L9 4.58994L5.71 1.28994C5.61676 1.1967 5.50607 1.12274 5.38425 1.07228C5.26243 1.02182 5.13186 0.99585 5 0.99585C4.86814 0.99585 4.73757 1.02182 4.61575 1.07228C4.49393 1.12274 4.38324 1.1967 4.29 1.28994C4.1017 1.47824 3.99591 1.73364 3.99591 1.99994C3.99591 2.1318 4.02188 2.26237 4.07234 2.38419C4.1228 2.50601 4.19676 2.6167 4.29 2.70994L6.59 4.99994H3C2.20435 4.99994 1.44129 5.31601 0.87868 5.87862C0.316071 6.44123 0 7.20429 0 7.99994V17.9999C0 18.7956 0.316071 19.5587 0.87868 20.1213C1.44129 20.6839 2.20435 20.9999 3 20.9999H15C15.7956 20.9999 16.5587 20.6839 17.1213 20.1213C17.6839 19.5587 18 18.7956 18 17.9999V7.99994C18 7.20429 17.6839 6.44123 17.1213 5.87862C16.5587 5.31601 15.7956 4.99994 15 4.99994ZM16 17.9999C16 18.2652 15.8946 18.5195 15.7071 18.707C15.5196 18.8946 15.2652 18.9999 15 18.9999H3C2.73478 18.9999 2.48043 18.8946 2.29289 18.707C2.10536 18.5195 2 18.2652 2 17.9999V7.99994C2 7.73472 2.10536 7.48037 2.29289 7.29283C2.48043 7.1053 2.73478 6.99994 3 6.99994H15C15.2652 6.99994 15.5196 7.1053 15.7071 7.29283C15.8946 7.48037 16 7.73472 16 7.99994V17.9999Z" fill="white"/>
</svg>
